<?xml version="1.0" encoding="UTF-8" standalone="no"?>
<!-- Generator: Adobe Illustrator 28.0.0, SVG Export Plug-In . SVG Version: 6.00 Build 0)  -->

<svg
   version="1.1"
   x="0px"
   y="0px"
   viewBox="0 0 1734.8944 984.86285"
   xml:space="preserve"
   id="svg12"
   sodipodi:docname="Logo_Animation_ohneHintergrund.svg"
   inkscape:version="1.3 (0e150ed6c4, 2023-07-21)"
   width="1734.8944"
   height="984.86285"
   xmlns:inkscape="http://www.inkscape.org/namespaces/inkscape"
   xmlns:sodipodi="http://sodipodi.sourceforge.net/DTD/sodipodi-0.dtd"
   xmlns="http://www.w3.org/2000/svg"
   xmlns:svg="http://www.w3.org/2000/svg"><defs
   id="defs12"><filter
     inkscape:collect="always"
     style="color-interpolation-filters:sRGB"
     id="filter27"
     x="-0.036873489"
     y="-0.07138217"
     width="1.0737469"
     height="1.1427643"><feGaussianBlur
       inkscape:collect="always"
       stdDeviation="7.9268406"
       id="feGaussianBlur27" /></filter><filter
     inkscape:collect="always"
     style="color-interpolation-filters:sRGB"
     id="filter28"
     x="-0.044893167"
     y="-0.048489389"
     width="1.0890338"
     height="1.094429"><feGaussianBlur
       inkscape:collect="always"
       stdDeviation="1.9817101"
       id="feGaussianBlur28" /></filter><filter
     inkscape:collect="always"
     style="color-interpolation-filters:sRGB"
     id="filter29"
     x="-0.012572966"
     y="-0.028305715"
     width="1.026225"
     height="1.058645"><feGaussianBlur
       inkscape:collect="always"
       stdDeviation="1.9817101"
       id="feGaussianBlur29" /></filter><filter
     inkscape:collect="always"
     style="color-interpolation-filters:sRGB"
     id="filter30"
     x="-0.023770372"
     y="-0.04601628"
     width="1.0475407"
     height="1.0920326"><feGaussianBlur
       inkscape:collect="always"
       stdDeviation="1.9817101"
       id="feGaussianBlur30" /></filter><filter
     inkscape:collect="always"
     style="color-interpolation-filters:sRGB"
     id="filter31"
     x="-0.03168244"
     y="-0.019277679"
     width="1.0633649"
     height="1.0384131"><feGaussianBlur
       inkscape:collect="always"
       stdDeviation="1.20636"
       id="feGaussianBlur31" /></filter><filter
     inkscape:collect="always"
     style="color-interpolation-filters:sRGB"
     id="filter32"
     x="-0.034528112"
     y="-0.016715791"
     width="1.0690562"
     height="1.0334316"><feGaussianBlur
       inkscape:collect="always"
       stdDeviation="1.20636"
       id="feGaussianBlur32" /></filter><filter
     inkscape:collect="always"
     style="color-interpolation-filters:sRGB"
     id="filter33"
     x="-0.039289253"
     y="-0.01671174"
     width="1.0785785"
     height="1.0334235"><feGaussianBlur
       inkscape:collect="always"
       stdDeviation="1.20636"
       id="feGaussianBlur33" /></filter><filter
     inkscape:collect="always"
     style="color-interpolation-filters:sRGB"
     id="filter34"
     x="-0.034424683"
     y="-0.016715791"
     width="1.0688494"
     height="1.0334316"><feGaussianBlur
       inkscape:collect="always"
       stdDeviation="1.20636"
       id="feGaussianBlur34" /></filter><filter
     inkscape:collect="always"
     style="color-interpolation-filters:sRGB"
     id="filter35"
     x="-0.020494594"
     y="-0.039674806"
     width="1.0409892"
     height="1.0793496"><feGaussianBlur
       inkscape:collect="always"
       stdDeviation="1.9817101"
       id="feGaussianBlur35" /></filter><filter
     inkscape:collect="always"
     style="color-interpolation-filters:sRGB"
     id="filter36"
     x="-0.15313713"
     y="-0.15799252"
     width="1.3014031"
     height="1.3039552"><feGaussianBlur
       inkscape:collect="always"
       stdDeviation="0.48375"
       id="feGaussianBlur36" /></filter><filter
     inkscape:collect="always"
     style="color-interpolation-filters:sRGB"
     id="filter37"
     x="-0.15313713"
     y="-0.15842628"
     width="1.301983"
     height="1.3036305"><feGaussianBlur
       inkscape:collect="always"
       stdDeviation="0.48375"
       id="feGaussianBlur37" /></filter><filter
     inkscape:collect="always"
     style="color-interpolation-filters:sRGB"
     id="filter38"
     x="-0.15374618"
     y="-0.15911176"
     width="1.3020384"
     height="1.3037486"><feGaussianBlur
       inkscape:collect="always"
       stdDeviation="0.48375"
       id="feGaussianBlur38" /></filter><filter
     inkscape:collect="always"
     style="color-interpolation-filters:sRGB"
     id="filter39"
     x="-0.15308066"
     y="-0.15799252"
     width="1.3020562"
     height="1.3039099"><feGaussianBlur
       inkscape:collect="always"
       stdDeviation="0.48375"
       id="feGaussianBlur39" /></filter><filter
     inkscape:collect="always"
     style="color-interpolation-filters:sRGB"
     id="filter40"
     x="-0.15325664"
     y="-0.15870017"
     width="1.3022322"
     height="1.30409"><feGaussianBlur
       inkscape:collect="always"
       stdDeviation="0.48375"
       id="feGaussianBlur40" /></filter><filter
     inkscape:collect="always"
     style="color-interpolation-filters:sRGB"
     id="filter41"
     x="-0.15325664"
     y="-0.15939792"
     width="1.3022322"
     height="1.3040809"><feGaussianBlur
       inkscape:collect="always"
       stdDeviation="0.48375"
       id="feGaussianBlur41" /></filter><filter
     inkscape:collect="always"
     style="color-interpolation-filters:sRGB"
     id="filter42"
     x="-0.15308066"
     y="-0.15799252"
     width="1.3020562"
     height="1.3033823"><feGaussianBlur
       inkscape:collect="always"
       stdDeviation="0.48375"
       id="feGaussianBlur42" /></filter><filter
     inkscape:collect="always"
     style="color-interpolation-filters:sRGB"
     id="filter43"
     x="-0.15263642"
     y="-0.15913611"
     width="1.301612"
     height="1.3038191"><feGaussianBlur
       inkscape:collect="always"
       stdDeviation="0.48375"
       id="feGaussianBlur43" /></filter><filter
     inkscape:collect="always"
     style="color-interpolation-filters:sRGB"
     id="filter44"
     x="-0.15263642"
     y="-0.15913611"
     width="1.3021782"
     height="1.3038191"><feGaussianBlur
       inkscape:collect="always"
       stdDeviation="0.48375"
       id="feGaussianBlur44" /></filter></defs><sodipodi:namedview
   id="namedview12"
   pagecolor="#ffffff"
   bordercolor="#666666"
   borderopacity="1.0"
   inkscape:showpageshadow="2"
   inkscape:pageopacity="0.0"
   inkscape:pagecheckerboard="0"
   inkscape:deskcolor="#d1d1d1"
   inkscape:zoom="1.1199529"
   inkscape:cx="879.50127"
   inkscape:cy="520.55761"
   inkscape:window-width="3200"
   inkscape:window-height="1772"
   inkscape:window-x="-8"
   inkscape:window-y="886"
   inkscape:window-maximized="1"
   inkscape:current-layer="svg12" />&#10;<style
   type="text/css"
   id="style1">&#10;	.st0{stroke:#000000;stroke-miterlimit:10;}&#10;</style>&#10;&#10;&#10;<g
   inkscape:groupmode="layer"
   id="g26"
   inkscape:label="Hintergrundlayer"
   style="display:inline;fill:none;fill-opacity:1;stroke:#BC13FE;stroke-width:7;stroke-dasharray:none;stroke-opacity:1;filter:url(#filter27)"
   sodipodi:insensitive="true"
   transform="translate(129.46973,102.68289)"><g
     id="g21"
     style="display:inline;fill:none;fill-opacity:1;stroke:#BC13FE;stroke-width:7;stroke-dasharray:none;stroke-opacity:1;filter:url(#filter28)"
     inkscape:label="Hintergrund_Sternenkreis">&#10;	&#10;	&#10;	&#10;	&#10;	&#10;	&#10;	&#10;	&#10;	&#10;	<polygon
   class="st0"
   points="1173.2,379.9 1174.7,362.2 1161.2,351.6 1178.3,346.7 1184.7,329.9 1193.7,344.7 1211.2,344.9 1199.7,358.8 1204.1,375.8 1188,369.7 "
   id="polygon13"
   style="display:inline;fill:none;fill-opacity:1;stroke:#BC13FE;stroke-width:6;stroke-dasharray:none;stroke-opacity:1;filter:url(#filter44)"
   inkscape:label="Hintergrund_Stern9" /><polygon
   class="st0"
   points="1223.6,347.5 1225.1,329.8 1211.6,319.2 1228.7,314.3 1235.1,297.5 1244.1,312.3 1261.6,312.5 1250.1,326.5 1254.5,343.4 1238.4,337.3 "
   id="polygon14"
   style="display:inline;fill:none;fill-opacity:1;stroke:#BC13FE;stroke-width:6;stroke-dasharray:none;stroke-opacity:1;filter:url(#filter43)"
   inkscape:label="Hintergrund_Stern8" /><polygon
   class="st0"
   points="1249.9,290.2 1251.4,272.5 1237.9,261.9 1255,257.1 1261.4,240.2 1270.4,255 1287.9,255.2 1276.4,269.2 1280.8,286.1 1264.7,280 "
   id="polygon15"
   style="display:inline;fill:none;fill-opacity:1;stroke:#BC13FE;stroke-width:6;stroke-dasharray:none;stroke-opacity:1;filter:url(#filter41)"
   inkscape:label="Hintergrund_Stern7" /><polygon
   class="st0"
   points="1269.4,228.8 1253.3,222.7 1238.5,233 1240,215.2 1226.5,204.6 1243.5,199.8 1249.9,183 1259,197.7 1276.5,197.9 1265,211.9 "
   id="polygon16"
   inkscape:label="Hintergrund_Stern6"
   style="fill:none;fill-opacity:1;stroke:#BC13FE;stroke-width:6;stroke-dasharray:none;stroke-opacity:1;filter:url(#filter42)" /><polygon
   class="st0"
   points="1230.8,186.1 1214.7,180 1199.9,190.3 1201.4,172.5 1187.9,161.9 1205,157.1 1211.4,140.3 1220.4,155 1237.9,155.2 1226.4,169.2 "
   id="polygon17"
   inkscape:label="Hintergrund_Stern5"
   style="fill:none;fill-opacity:1;stroke:#BC13FE;stroke-width:6;stroke-dasharray:none;stroke-opacity:1;filter:url(#filter40)" /><polygon
   class="st0"
   points="1178.9,164.7 1162.7,158.6 1148,168.9 1149.5,151.1 1136,140.5 1153,135.7 1159.4,118.9 1168.5,133.6 1186,133.8 1174.5,147.8 "
   id="polygon18"
   inkscape:label="Hintergrund_Stern4"
   style="fill:none;fill-opacity:1;stroke:#BC13FE;stroke-width:6;stroke-dasharray:none;stroke-opacity:1;filter:url(#filter39)" /><polygon
   class="st0"
   points="1120.9,175.3 1104.7,169.2 1090,179.4 1091.4,161.6 1077.8,150.9 1094.9,146.2 1101.2,129.4 1110.3,144.2 1127.8,144.4 1116.4,158.4 "
   id="polygon19"
   inkscape:label="Hintergrund_Stern3"
   style="fill:none;fill-opacity:1;stroke:#BC13FE;stroke-width:6;stroke-dasharray:none;stroke-opacity:1;filter:url(#filter38)" /><polygon
   class="st0"
   points="1074.6,209.7 1058.4,203.6 1043.7,213.8 1045.2,196.1 1031.6,185.5 1048.7,180.6 1055.1,163.8 1064.2,178.6 1081.6,178.8 1070.2,192.7 "
   id="polygon20"
   inkscape:label="Hintergrund_Stern2"
   style="fill:none;fill-opacity:1;stroke:#BC13FE;stroke-width:6;stroke-dasharray:none;stroke-opacity:1;filter:url(#filter37)" /><polygon
   class="st0"
   points="1054.4,267 1038.2,260.8 1023.5,271.1 1025,253.4 1011.4,242.8 1028.5,237.9 1034.9,221.1 1044,235.8 1061.4,236.1 1050,250 "
   id="polygon21"
   inkscape:label="Hintergrund_Stern1"
   style="fill:none;fill-opacity:1;stroke:#BC13FE;stroke-width:6;stroke-dasharray:none;stroke-opacity:1;filter:url(#filter36)" />&#10;</g><g
     id="g24"
     inkscape:label="Hintergrund_Buchstaben"
     style="display:inline;fill:none;fill-opacity:1;stroke:#BC13FE;stroke-width:7;stroke-dasharray:none;stroke-opacity:1;filter:url(#filter29)">&#10;		<path
   class="st0"
   d="m 397,642 c -19.6,19.6 -43.2,29.4 -70.7,29.4 -27.5,0 -51,-9.8 -70.4,-29.4 -19.4,-19.6 -29.1,-43.2 -29.1,-70.7 L 226.2,359 c 0,-27.5 9.9,-51.1 29.7,-70.7 19.8,-19.6 43.3,-29.4 70.4,-29.4 27.1,0 50.6,9.9 70.4,29.7 19.8,19.8 29.7,43.3 29.7,70.4 v 75.4 h -25.3 c 0,-2.9 0,-6 0,-9.1 0,-3.1 0,-6.3 0,-9.6 0.4,-5.5 0.6,-11.1 0.6,-16.8 0,-5.7 -0.2,-11.3 -0.6,-16.8 -0.7,-24.6 -5.6,-47 -14.6,-67.4 -9,-20.4 -29.1,-30.5 -60.2,-30.5 -20.5,0 -38.1,7.3 -52.8,22 -14.7,14.7 -22,32.3 -22,52.8 v 212.3 c 0,20.9 7.3,38.7 22,53.3 14.7,14.7 32.3,22 52.8,22 30.4,0 50.7,-10.5 60.8,-31.3 10.1,-20.9 14.8,-43.8 14,-68.8 h -99.5 v -24.8 h 124.9 v 49.5 c -0.1,27.6 -9.9,51.1 -29.5,70.8 z"
   id="path21"
   style="display:inline;fill:none;fill-opacity:1;stroke:#BC13FE;stroke-width:10;stroke-dasharray:none;stroke-opacity:1;filter:url(#filter34)"
   inkscape:label="Hintergrund_G" />&#10;		<path
   class="st0"
   d="m 511.6,671.4 c -13.6,0 -25.3,-4.9 -35.2,-14.6 -9.9,-9.7 -14.9,-21.5 -14.9,-35.5 V 258.9 h 25.3 v 362.5 c 0,7 2.4,12.8 7.1,17.6 4.8,4.8 10.6,7.2 17.6,7.2 H 637 v 25.3 H 511.6 Z"
   id="path22"
   style="display:inline;fill:none;fill-opacity:1;stroke:#BC13FE;stroke-width:10;stroke-dasharray:none;stroke-opacity:1;filter:url(#filter33)"
   inkscape:label="Hintergrund_L" />&#10;		<path
   class="st0"
   d="M 844.9,670.3 V 544.9 H 694.8 V 670.3 H 670 V 357.9 c 0,-27.9 9.7,-51.5 29.2,-71 19.4,-19.4 42.9,-29.1 70.4,-29.1 27.1,0 50.6,9.9 70.4,29.7 19.8,19.8 29.7,43.3 29.7,70.4 v 312.4 z m 0,-312.4 c 0,-20.5 -7.4,-38.2 -22.3,-53.1 -14.8,-14.8 -32.5,-22.3 -53.1,-22.3 -20.2,0 -37.7,7.4 -52.5,22.3 -14.8,14.9 -22.3,32.5 -22.3,53.1 v 162.2 h 150.2 z"
   id="path23"
   inkscape:label="Hintergrund_A"
   style="fill:none;fill-opacity:1;stroke:#BC13FE;stroke-width:10;stroke-dasharray:none;stroke-opacity:1;filter:url(#filter32)" />&#10;		<path
   class="st0"
   d="M 1128.2,671.4 V 284.2 c -23.1,-0.7 -43.5,5.3 -61,18.2 -17.6,12.8 -26.4,31.7 -26.4,56.6 V 546.6 H 1016 V 359 c 0,-25.3 -8.9,-44.2 -26.7,-56.6 -17.8,-12.5 -38,-18.5 -60.8,-18.2 v 387.2 h -24.8 v -412 c 27.5,0 51.1,2.1 70.9,6.3 19.8,4.2 37.6,19.2 53.4,44.8 14.3,-25.3 32.3,-40.2 53.9,-44.6 21.6,-4.4 45.3,-6.8 71,-7.1 v 412.5 h -24.7 z"
   id="path24"
   style="display:inline;fill:none;fill-opacity:1;stroke:#BC13FE;stroke-width:12;stroke-dasharray:none;stroke-opacity:1;filter:url(#filter31)"
   inkscape:label="Hintergrund_M">&#10;   <animate
   id="light_1"
   attributeName="stroke-opacity"
   begin="0s;light_2.end+7s"
   dur="0.1s"
   values="1;0" />&#10;	<animate
   id="light_2"
   attributeName="stroke-opacity"
   begin="light_1.end"
   dur="0.1s"
   values="1;0" />&#10;   </path>&#10;   &#10;   &#10;	</g><g
     id="g25"
     style="display:inline;fill:none;fill-opacity:1;stroke:#BC13FE;stroke-width:7;stroke-dasharray:none;stroke-opacity:1;filter:url(#filter30)"
     inkscape:label="Hintergrund_Border">&#10;     &#10;     &#10;     &#10;	<path
   d="m 1372.4,47 c 45,0 81.6,36.6 81.6,81.6 v 542.7 c 0,45 -36.6,81.6 -81.6,81.6 H 127.6 C 82.6,752.9 46,716.3 46,671.3 V 128.6 C 46,83.6 82.6,47 127.6,47 h 1244.8 m 0,-22 H 127.6 C 70.4,25 24,71.4 24,128.6 V 671.3 C 24,728.6 70.4,775 127.6,775 h 1244.7 c 57.2,0 103.6,-46.4 103.6,-103.6 V 128.6 C 1476,71.4 1429.6,25 1372.4,25 Z"
   id="path25"
   style="display:inline;fill:none;fill-opacity:1;stroke:#BC13FE;stroke-width:40;stroke-dasharray:none;stroke-opacity:0.9;filter:url(#filter35)"
   inkscape:label="Hintergrund_Borderpfad">&#10;   
    <animate
      id="light_1"
      attributeName="stroke-opacity"
      begin="0s;light_2.end+4s"
      dur="0.1s"
      values="1;0" />&#10;	
    <animate
      id="light_2"
      attributeName="stroke-opacity"
      begin="light_1.end"
      dur="0.1s"
      values="1;0" />
      &#10;   </path>&#10;   &#10;</g></g><g
   inkscape:groupmode="layer"
   id="layer1"
   inkscape:label="Frontlayer"
   style="display:inline;fill:#ffffff;fill-opacity:1;stroke:none"
   sodipodi:insensitive="true"
   transform="translate(129.46973,102.68289)"><g
     id="Sternenkreis"
     style="display:inline;fill:#ffffff;fill-opacity:1;stroke:none"
     sodipodi:insensitive="true">&#10;	&#10;	&#10;	&#10;	&#10;	&#10;	&#10;	&#10;	&#10;	&#10;	<polygon
   class="st0"
   points="1184.7,329.9 1193.7,344.7 1211.2,344.9 1199.7,358.8 1204.1,375.8 1188,369.7 1173.2,379.9 1174.7,362.2 1161.2,351.6 1178.3,346.7 "
   id="polygon12"
   style="display:inline;fill:#ffffff;fill-opacity:1;stroke:none"
   inkscape:label="Stern9" /><polygon
   class="st0"
   points="1235.1,297.5 1244.1,312.3 1261.6,312.5 1250.1,326.5 1254.5,343.4 1238.4,337.3 1223.6,347.5 1225.1,329.8 1211.6,319.2 1228.7,314.3 "
   id="polygon11"
   style="display:inline;fill:#ffffff;fill-opacity:1;stroke:none"
   inkscape:label="Stern8" /><polygon
   class="st0"
   points="1261.4,240.2 1270.4,255 1287.9,255.2 1276.4,269.2 1280.8,286.1 1264.7,280 1249.9,290.2 1251.4,272.5 1237.9,261.9 1255,257.1 "
   id="polygon10"
   style="display:inline;fill:#ffffff;fill-opacity:1;stroke:none"
   inkscape:label="Stern7" /><polygon
   class="st0"
   points="1226.5,204.6 1243.5,199.8 1249.9,183 1259,197.7 1276.5,197.9 1265,211.9 1269.4,228.8 1253.3,222.7 1238.5,233 1240,215.2 "
   id="polygon6"
   inkscape:label="Stern6"
   style="fill:#ffffff;fill-opacity:1;stroke:none" /><polygon
   class="st0"
   points="1187.9,161.9 1205,157.1 1211.4,140.3 1220.4,155 1237.9,155.2 1226.4,169.2 1230.8,186.1 1214.7,180 1199.9,190.3 1201.4,172.5 "
   id="polygon5"
   inkscape:label="Stern5"
   style="fill:#ffffff;fill-opacity:1;stroke:none" /><polygon
   class="st0"
   points="1136,140.5 1153,135.7 1159.4,118.9 1168.5,133.6 1186,133.8 1174.5,147.8 1178.9,164.7 1162.7,158.6 1148,168.9 1149.5,151.1 "
   id="polygon4"
   inkscape:label="Stern4"
   style="fill:#ffffff;fill-opacity:1;stroke:none" /><polygon
   class="st0"
   points="1077.8,150.9 1094.9,146.2 1101.2,129.4 1110.3,144.2 1127.8,144.4 1116.4,158.4 1120.9,175.3 1104.7,169.2 1090,179.4 1091.4,161.6 "
   id="polygon7"
   inkscape:label="Stern3"
   style="fill:#ffffff;fill-opacity:1;stroke:none" /><polygon
   class="st0"
   points="1031.6,185.5 1048.7,180.6 1055.1,163.8 1064.2,178.6 1081.6,178.8 1070.2,192.7 1074.6,209.7 1058.4,203.6 1043.7,213.8 1045.2,196.1 "
   id="polygon9"
   inkscape:label="Stern2"
   style="fill:#ffffff;fill-opacity:1;stroke:none" /><polygon
   class="st0"
   points="1011.4,242.8 1028.5,237.9 1034.9,221.1 1044,235.8 1061.4,236.1 1050,250 1054.4,267 1038.2,260.8 1023.5,271.1 1025,253.4 "
   id="polygon8"
   inkscape:label="Stern1"
   style="fill:#ffffff;fill-opacity:1;stroke:none" />&#10;</g><g
     id="g4"
     inkscape:label="Buchstaben"
     style="display:inline;fill:#ffffff;fill-opacity:1;stroke:none"
     sodipodi:insensitive="true">&#10;		<path
   class="st0"
   d="m 397,642 c -19.6,19.6 -43.2,29.4 -70.7,29.4 -27.5,0 -51,-9.8 -70.4,-29.4 -19.4,-19.6 -29.1,-43.2 -29.1,-70.7 L 226.2,359 c 0,-27.5 9.9,-51.1 29.7,-70.7 19.8,-19.6 43.3,-29.4 70.4,-29.4 27.1,0 50.6,9.9 70.4,29.7 19.8,19.8 29.7,43.3 29.7,70.4 v 75.4 h -25.3 c 0,-2.9 0,-6 0,-9.1 0,-3.1 0,-6.3 0,-9.6 0.4,-5.5 0.6,-11.1 0.6,-16.8 0,-5.7 -0.2,-11.3 -0.6,-16.8 -0.7,-24.6 -5.6,-47 -14.6,-67.4 -9,-20.4 -29.1,-30.5 -60.2,-30.5 -20.5,0 -38.1,7.3 -52.8,22 -14.7,14.7 -22,32.3 -22,52.8 v 212.3 c 0,20.9 7.3,38.7 22,53.3 14.7,14.7 32.3,22 52.8,22 30.4,0 50.7,-10.5 60.8,-31.3 10.1,-20.9 14.8,-43.8 14,-68.8 h -99.5 v -24.8 h 124.9 v 49.5 c -0.1,27.6 -9.9,51.1 -29.5,70.8 z"
   id="path1"
   style="display:inline;fill:#ffffff;fill-opacity:0.9;stroke:none"
   inkscape:label="G" />&#10;		<path
   class="st0"
   d="m 511.6,671.4 c -13.6,0 -25.3,-4.9 -35.2,-14.6 -9.9,-9.7 -14.9,-21.5 -14.9,-35.5 V 258.9 h 25.3 v 362.5 c 0,7 2.4,12.8 7.1,17.6 4.8,4.8 10.6,7.2 17.6,7.2 H 637 v 25.3 H 511.6 Z"
   id="path2"
   style="display:inline;fill:#ffffff;fill-opacity:0.9;stroke:none"
   inkscape:label="L" />&#10;		<path
   class="st0"
   d="M 844.9,670.3 V 544.9 H 694.8 V 670.3 H 670 V 357.9 c 0,-27.9 9.7,-51.5 29.2,-71 19.4,-19.4 42.9,-29.1 70.4,-29.1 27.1,0 50.6,9.9 70.4,29.7 19.8,19.8 29.7,43.3 29.7,70.4 v 312.4 z m 0,-312.4 c 0,-20.5 -7.4,-38.2 -22.3,-53.1 -14.8,-14.8 -32.5,-22.3 -53.1,-22.3 -20.2,0 -37.7,7.4 -52.5,22.3 -14.8,14.9 -22.3,32.5 -22.3,53.1 v 162.2 h 150.2 z"
   id="path3"
   inkscape:label="A"
   style="fill:#ffffff;fill-opacity:0.9;stroke:none" />&#10;		<path
   class="st0"
   d="M 1128.2,671.4 V 284.2 c -23.1,-0.7 -43.5,5.3 -61,18.2 -17.6,12.8 -26.4,31.7 -26.4,56.6 V 546.6 H 1016 V 359 c 0,-25.3 -8.9,-44.2 -26.7,-56.6 -17.8,-12.5 -38,-18.5 -60.8,-18.2 v 387.2 h -24.8 v -412 c 27.5,0 51.1,2.1 70.9,6.3 19.8,4.2 37.6,19.2 53.4,44.8 14.3,-25.3 32.3,-40.2 53.9,-44.6 21.6,-4.4 45.3,-6.8 71,-7.1 v 412.5 h -24.7 z"
   id="path4"
   style="display:inline;fill:#ffffff;fill-opacity:1;stroke:none"
   inkscape:label="M" />&#10;	</g><g
     id="Ebene_2"
     style="display:inline;fill:#ffffff;fill-opacity:0.9;stroke:none"
     inkscape:label="Border">&#10;	<path
   d="m 1372.4,47 c 45,0 81.6,36.6 81.6,81.6 v 542.7 c 0,45 -36.6,81.6 -81.6,81.6 H 127.6 C 82.6,752.9 46,716.3 46,671.3 V 128.6 C 46,83.6 82.6,47 127.6,47 h 1244.8 m 0,-22 H 127.6 C 70.4,25 24,71.4 24,128.6 V 671.3 C 24,728.6 70.4,775 127.6,775 h 1244.7 c 57.2,0 103.6,-46.4 103.6,-103.6 V 128.6 C 1476,71.4 1429.6,25 1372.4,25 Z"
   id="path12"
   style="display:inline;fill:#ffffff;fill-opacity:0.8;stroke:none"
   inkscape:label="Borderpfad" />&#10;   &#10;</g></g></svg>
