<svg xmlns="http://www.w3.org/2000/svg" xml:space="preserve" id="svg12" width="1557.465" height="907.263" x="0" y="0" version="1.1" viewBox="0 0 1557.465 907.263"><defs id="defs12"><filter id="filter27" width="1.067" height="1.127" x="-.033" y="-.063" style="color-interpolation-filters:sRGB"><feGaussianBlur id="feGaussianBlur27" stdDeviation="7.927"/></filter><filter id="filter28" width="1.089" height="1.094" x="-.045" y="-.048" style="color-interpolation-filters:sRGB"><feGaussianBlur id="feGaussianBlur28" stdDeviation="1.982"/></filter><filter id="filter29" width="1.028" height="1.064" x="-.014" y="-.031" style="color-interpolation-filters:sRGB"><feGaussianBlur id="feGaussianBlur29" stdDeviation="1.982"/></filter><filter id="filter30" width="1.041" height="1.079" x="-.02" y="-.039" style="color-interpolation-filters:sRGB"><feGaussianBlur id="feGaussianBlur30" stdDeviation="1.982"/></filter><filter id="filter31" width="1.071" height="1.043" x="-.036" y="-.022" style="color-interpolation-filters:sRGB"><feGaussianBlur id="feGaussianBlur31" stdDeviation="1.206"/></filter><filter id="filter32" width="1.079" height="1.038" x="-.04" y="-.019" style="color-interpolation-filters:sRGB"><feGaussianBlur id="feGaussianBlur32" stdDeviation="1.206"/></filter><filter id="filter33" width="1.09" height="1.038" x="-.045" y="-.019" style="color-interpolation-filters:sRGB"><feGaussianBlur id="feGaussianBlur33" stdDeviation="1.206"/></filter><filter id="filter34" width="1.079" height="1.038" x="-.039" y="-.019" style="color-interpolation-filters:sRGB"><feGaussianBlur id="feGaussianBlur34" stdDeviation="1.206"/></filter><filter id="filter35" width="1.034" height="1.066" x="-.017" y="-.033" style="color-interpolation-filters:sRGB"><feGaussianBlur id="feGaussianBlur35" stdDeviation="1.982"/></filter><filter id="filter36" width="1.301" height="1.304" x="-.153" y="-.158" style="color-interpolation-filters:sRGB"><feGaussianBlur id="feGaussianBlur36" stdDeviation=".484"/></filter><filter id="filter37" width="1.302" height="1.304" x="-.153" y="-.158" style="color-interpolation-filters:sRGB"><feGaussianBlur id="feGaussianBlur37" stdDeviation=".484"/></filter><filter id="filter38" width="1.302" height="1.304" x="-.154" y="-.159" style="color-interpolation-filters:sRGB"><feGaussianBlur id="feGaussianBlur38" stdDeviation=".484"/></filter><filter id="filter39" width="1.302" height="1.304" x="-.153" y="-.158" style="color-interpolation-filters:sRGB"><feGaussianBlur id="feGaussianBlur39" stdDeviation=".484"/></filter><filter id="filter40" width="1.302" height="1.304" x="-.153" y="-.159" style="color-interpolation-filters:sRGB"><feGaussianBlur id="feGaussianBlur40" stdDeviation=".484"/></filter><filter id="filter41" width="1.302" height="1.304" x="-.153" y="-.159" style="color-interpolation-filters:sRGB"><feGaussianBlur id="feGaussianBlur41" stdDeviation=".484"/></filter><filter id="filter42" width="1.302" height="1.303" x="-.153" y="-.158" style="color-interpolation-filters:sRGB"><feGaussianBlur id="feGaussianBlur42" stdDeviation=".484"/></filter><filter id="filter43" width="1.302" height="1.304" x="-.153" y="-.159" style="color-interpolation-filters:sRGB"><feGaussianBlur id="feGaussianBlur43" stdDeviation=".484"/></filter><filter id="filter44" width="1.302" height="1.304" x="-.153" y="-.159" style="color-interpolation-filters:sRGB"><feGaussianBlur id="feGaussianBlur44" stdDeviation=".484"/></filter></defs><style id="style1" type="text/css">.st0{stroke:#000;stroke-miterlimit:10}</style><g id="g26" style="display:inline;fill:none;fill-opacity:1;stroke:#f600fe;stroke-width:7;stroke-dasharray:none;stroke-opacity:1;filter:url(#filter27)" transform="translate(28.783 30.416)"><g id="g21" style="display:inline;fill:none;fill-opacity:1;stroke:#ff00fe;stroke-width:7;stroke-dasharray:none;stroke-opacity:1;filter:url(#filter28)"><path id="polygon13" d="m1178.3 346.7 6.4-16.8 9 14.8 17.5.2-11.5 13.9 4.4 17-16.1-6.1-14.8 10.2 1.5-17.7-13.5-10.6z" class="st0" style="display:inline;fill:none;fill-opacity:1;stroke:#ff00fe;stroke-width:6;stroke-dasharray:none;stroke-opacity:1;filter:url(#filter44)"/><path id="polygon14" d="m1228.7 314.3 6.4-16.8 9 14.8 17.5.2-11.5 14 4.4 16.9-16.1-6.1-14.8 10.2 1.5-17.7-13.5-10.6z" class="st0" style="display:inline;fill:none;fill-opacity:1;stroke:#ff00fe;stroke-width:6;stroke-dasharray:none;stroke-opacity:1;filter:url(#filter43)"/><path id="polygon15" d="m1255 257.1 6.4-16.9 9 14.8 17.5.2-11.5 14 4.4 16.9-16.1-6.1-14.8 10.2 1.5-17.7-13.5-10.6z" class="st0" style="display:inline;fill:none;fill-opacity:1;stroke:#ff00fe;stroke-width:6;stroke-dasharray:none;stroke-opacity:1;filter:url(#filter41)"/><path id="polygon16" d="m1240 215.2-13.5-10.6 17-4.8 6.4-16.8 9.1 14.7 17.5.2-11.5 14 4.4 16.9-16.1-6.1-14.8 10.3z" class="st0" style="fill:none;fill-opacity:1;stroke:#ff00fe;stroke-width:6;stroke-dasharray:none;stroke-opacity:1;filter:url(#filter42)"/><path id="polygon17" d="m1201.4 172.5-13.5-10.6 17.1-4.8 6.4-16.8 9 14.7 17.5.2-11.5 14 4.4 16.9-16.1-6.1-14.8 10.3z" class="st0" style="fill:none;fill-opacity:1;stroke:#ff00fe;stroke-width:6;stroke-dasharray:none;stroke-opacity:1;filter:url(#filter40)"/><path id="polygon18" d="m1149.5 151.1-13.5-10.6 17-4.8 6.4-16.8 9.1 14.7 17.5.2-11.5 14 4.4 16.9-16.2-6.1-14.7 10.3z" class="st0" style="fill:none;fill-opacity:1;stroke:#ff00fe;stroke-width:6;stroke-dasharray:none;stroke-opacity:1;filter:url(#filter39)"/><path id="polygon19" d="m1091.4 161.6-13.6-10.7 17.1-4.7 6.3-16.8 9.1 14.8 17.5.2-11.4 14 4.5 16.9-16.2-6.1-14.7 10.2z" class="st0" style="fill:none;fill-opacity:1;stroke:#ff00fe;stroke-width:6;stroke-dasharray:none;stroke-opacity:1;filter:url(#filter38)"/><path id="polygon20" d="m1045.2 196.1-13.6-10.6 17.1-4.9 6.4-16.8 9.1 14.8 17.4.2-11.4 13.9 4.4 17-16.2-6.1-14.7 10.2z" class="st0" style="fill:none;fill-opacity:1;stroke:#ff00fe;stroke-width:6;stroke-dasharray:none;stroke-opacity:1;filter:url(#filter37)"/><path id="polygon21" d="m1025 253.4-13.6-10.6 17.1-4.9 6.4-16.8 9.1 14.7 17.4.3L1050 250l4.4 17-16.2-6.2-14.7 10.3z" class="st0" style="fill:none;fill-opacity:1;stroke:#ff00fe;stroke-width:6;stroke-dasharray:none;stroke-opacity:1;filter:url(#filter36)"/></g><g id="g24" style="display:inline;fill:none;fill-opacity:1;stroke:#ff00fe;stroke-width:7;stroke-dasharray:none;stroke-opacity:1;filter:url(#filter29)"><path id="path21" d="M397 642c-19.6 19.6-43.2 29.4-70.7 29.4s-51-9.8-70.4-29.4-29.1-43.2-29.1-70.7l-.6-212.3c0-27.5 9.9-51.1 29.7-70.7s43.3-29.4 70.4-29.4 50.6 9.9 70.4 29.7 29.7 43.3 29.7 70.4v75.4h-25.3v-18.7q.6-8.25.6-16.8t-.6-16.8c-.7-24.6-5.6-47-14.6-67.4s-29.1-30.5-60.2-30.5c-20.5 0-38.1 7.3-52.8 22s-22 32.3-22 52.8v212.3c0 20.9 7.3 38.7 22 53.3 14.7 14.7 32.3 22 52.8 22 30.4 0 50.7-10.5 60.8-31.3 10.1-20.9 14.8-43.8 14-68.8h-99.5v-24.8h124.9v49.5c-.1 27.6-9.9 51.1-29.5 70.8z" class="st0" style="display:inline;fill:none;fill-opacity:1;stroke:#ff00fe;stroke-width:10;stroke-dasharray:none;stroke-opacity:1;filter:url(#filter34)"/><path id="path22" d="M511.6 671.4c-13.6 0-25.3-4.9-35.2-14.6s-14.9-21.5-14.9-35.5V258.9h25.3v362.5c0 7 2.4 12.8 7.1 17.6 4.8 4.8 10.6 7.2 17.6 7.2H637v25.3H511.6Z" class="st0" style="display:inline;fill:none;fill-opacity:1;stroke:#ff00fe;stroke-width:10;stroke-dasharray:none;stroke-opacity:1;filter:url(#filter33)"/><path id="path23" d="M844.9 670.3V544.9H694.8v125.4H670V357.9c0-27.9 9.7-51.5 29.2-71 19.4-19.4 42.9-29.1 70.4-29.1 27.1 0 50.6 9.9 70.4 29.7s29.7 43.3 29.7 70.4v312.4zm0-312.4c0-20.5-7.4-38.2-22.3-53.1-14.8-14.8-32.5-22.3-53.1-22.3-20.2 0-37.7 7.4-52.5 22.3s-22.3 32.5-22.3 53.1v162.2h150.2z" class="st0" style="fill:none;fill-opacity:1;stroke:#ff00fe;stroke-width:10;stroke-dasharray:none;stroke-opacity:1;filter:url(#filter32)"/><path id="path24" d="M1128.2 671.4V284.2c-23.1-.7-43.5 5.3-61 18.2-17.6 12.8-26.4 31.7-26.4 56.6v187.6H1016V359c0-25.3-8.9-44.2-26.7-56.6-17.8-12.5-38-18.5-60.8-18.2v387.2h-24.8v-412c27.5 0 51.1 2.1 70.9 6.3s37.6 19.2 53.4 44.8c14.3-25.3 32.3-40.2 53.9-44.6s45.3-6.8 71-7.1v412.5h-24.7z" class="st0" style="display:inline;fill:none;fill-opacity:1;stroke:#ff00fe;stroke-width:12;stroke-dasharray:none;stroke-opacity:1;filter:url(#filter31)"><animate id="light_1" attributeName="stroke-opacity" begin="0s;light_2.end+7s" dur="0.1s" values="1;0"/><animate id="light_2" attributeName="stroke-opacity" begin="light_1.end" dur="0.1s" values="1;0"/></path></g><g id="g25" style="display:inline;fill:none;fill-opacity:1;stroke:#ff00fe;stroke-width:7;stroke-dasharray:none;stroke-opacity:1;filter:url(#filter30)" transform="matrix(.99903 0 0 1.05856 .725 -.209)"><path id="path25" d="M1372.4 47c45 0 81.6 36.6 81.6 81.6v542.7c0 45-36.6 81.6-81.6 81.6H127.6c-45 0-81.6-36.6-81.6-81.6V128.6c0-45 36.6-81.6 81.6-81.6h1244.8m0-22H127.6C70.4 25 24 71.4 24 128.6v542.7C24 728.6 70.4 775 127.6 775h1244.7c57.2 0 103.6-46.4 103.6-103.6V128.6C1476 71.4 1429.6 25 1372.4 25Z" style="display:inline;fill:none;fill-opacity:1;stroke:#ff00fe;stroke-width:40;stroke-dasharray:none;stroke-opacity:.9;filter:url(#filter35)"><animate attributeName="stroke-opacity" begin="0s;light_2.end+4s" dur="0.1s" values="1;0"/><animate attributeName="stroke-opacity" begin="light_1.end" dur="0.1s" values="1;0"/></path></g></g><g id="layer1" style="display:inline;fill:#fff;fill-opacity:1;stroke:none" transform="translate(28.783 30.416)"><g id="Sternenkreis" style="display:inline;fill:#fff;fill-opacity:1;stroke:none"><path id="polygon12" d="m1211.2 344.9-11.5 13.9 4.4 17-16.1-6.1-14.8 10.2 1.5-17.7-13.5-10.6 17.1-4.9 6.4-16.8 9 14.8z" class="st0" style="display:inline;fill:#fff;fill-opacity:1;stroke:none"/><path id="polygon11" d="m1261.6 312.5-11.5 14 4.4 16.9-16.1-6.1-14.8 10.2 1.5-17.7-13.5-10.6 17.1-4.9 6.4-16.8 9 14.8z" class="st0" style="display:inline;fill:#fff;fill-opacity:1;stroke:none"/><path id="polygon10" d="m1287.9 255.2-11.5 14 4.4 16.9-16.1-6.1-14.8 10.2 1.5-17.7-13.5-10.6 17.1-4.8 6.4-16.9 9 14.8z" class="st0" style="display:inline;fill:#fff;fill-opacity:1;stroke:none"/><path id="polygon6" d="m1249.9 183 9.1 14.7 17.5.2-11.5 14 4.4 16.9-16.1-6.1-14.8 10.3 1.5-17.8-13.5-10.6 17-4.8z" class="st0" style="fill:#fff;fill-opacity:1;stroke:none"/><path id="polygon5" d="m1211.4 140.3 9 14.7 17.5.2-11.5 14 4.4 16.9-16.1-6.1-14.8 10.3 1.5-17.8-13.5-10.6 17.1-4.8z" class="st0" style="fill:#fff;fill-opacity:1;stroke:none"/><path id="polygon4" d="m1159.4 118.9 9.1 14.7 17.5.2-11.5 14 4.4 16.9-16.2-6.1-14.7 10.3 1.5-17.8-13.5-10.6 17-4.8z" class="st0" style="fill:#fff;fill-opacity:1;stroke:none"/><path id="polygon7" d="m1101.2 129.4 9.1 14.8 17.5.2-11.4 14 4.5 16.9-16.2-6.1-14.7 10.2 1.4-17.8-13.6-10.7 17.1-4.7z" class="st0" style="fill:#fff;fill-opacity:1;stroke:none"/><path id="polygon9" d="m1055.1 163.8 9.1 14.8 17.4.2-11.4 13.9 4.4 17-16.2-6.1-14.7 10.2 1.5-17.7-13.6-10.6 17.1-4.9z" class="st0" style="fill:#fff;fill-opacity:1;stroke:none"/><path id="polygon8" d="m1034.9 221.1 9.1 14.7 17.4.3L1050 250l4.4 17-16.2-6.2-14.7 10.3 1.5-17.7-13.6-10.6 17.1-4.9z" class="st0" style="fill:#fff;fill-opacity:1;stroke:none"/></g><g id="g4" style="display:inline;fill:#fff;fill-opacity:1;stroke:none"><path id="path1" d="M397 642c-19.6 19.6-43.2 29.4-70.7 29.4s-51-9.8-70.4-29.4-29.1-43.2-29.1-70.7l-.6-212.3c0-27.5 9.9-51.1 29.7-70.7s43.3-29.4 70.4-29.4 50.6 9.9 70.4 29.7 29.7 43.3 29.7 70.4v75.4h-25.3v-18.7q.6-8.25.6-16.8t-.6-16.8c-.7-24.6-5.6-47-14.6-67.4s-29.1-30.5-60.2-30.5c-20.5 0-38.1 7.3-52.8 22s-22 32.3-22 52.8v212.3c0 20.9 7.3 38.7 22 53.3 14.7 14.7 32.3 22 52.8 22 30.4 0 50.7-10.5 60.8-31.3 10.1-20.9 14.8-43.8 14-68.8h-99.5v-24.8h124.9v49.5c-.1 27.6-9.9 51.1-29.5 70.8" class="st0" style="display:inline;fill:#fff;fill-opacity:1;stroke:none"/><path id="path2" d="M511.6 671.4c-13.6 0-25.3-4.9-35.2-14.6s-14.9-21.5-14.9-35.5V258.9h25.3v362.5c0 7 2.4 12.8 7.1 17.6 4.8 4.8 10.6 7.2 17.6 7.2H637v25.3H511.6Z" class="st0" style="display:inline;fill:#fff;fill-opacity:1;stroke:none"/><path id="path3" d="M844.9 670.3V544.9H694.8v125.4H670V357.9c0-27.9 9.7-51.5 29.2-71 19.4-19.4 42.9-29.1 70.4-29.1 27.1 0 50.6 9.9 70.4 29.7s29.7 43.3 29.7 70.4v312.4zm0-312.4c0-20.5-7.4-38.2-22.3-53.1-14.8-14.8-32.5-22.3-53.1-22.3-20.2 0-37.7 7.4-52.5 22.3s-22.3 32.5-22.3 53.1v162.2h150.2z" class="st0" style="fill:#fff;fill-opacity:1;stroke:none"/><path id="path4" d="M1128.2 671.4V284.2c-23.1-.7-43.5 5.3-61 18.2-17.6 12.8-26.4 31.7-26.4 56.6v187.6H1016V359c0-25.3-8.9-44.2-26.7-56.6-17.8-12.5-38-18.5-60.8-18.2v387.2h-24.8v-412c27.5 0 51.1 2.1 70.9 6.3s37.6 19.2 53.4 44.8c14.3-25.3 32.3-40.2 53.9-44.6s45.3-6.8 71-7.1v412.5h-24.7z" class="st0" style="display:inline;fill:#fff;fill-opacity:1;stroke:none"/></g><g id="Ebene_2" style="display:inline;fill:#fff;fill-opacity:1;stroke:none"><path id="path12" d="M1372.4 48.31c45 0 81.6 38.778 81.6 86.457v575.005c0 47.679-36.6 86.457-81.6 86.457H127.6c-45 0-81.6-38.778-81.6-86.457V134.767c0-47.679 36.6-86.457 81.6-86.457zm0-23.31H127.6C70.4 25 24 74.162 24 134.767v575.005c0 60.71 46.4 109.873 103.6 109.873h1244.7c57.2 0 103.6-49.162 103.6-109.767V134.767C1476 74.162 1429.6 25 1372.4 25" style="display:inline;fill:#fff;fill-opacity:1;stroke:none;stroke-width:1.02933"/></g></g></svg>