<svg xmlns="http://www.w3.org/2000/svg" viewBox="0 0 1000 580"><defs><style>.cls-1{stroke-width:0}</style></defs><path id="Ebene_1" d="M198.21 511.95c-17.84 17.84-39.25 26.75-64.25 26.75s-46.34-8.91-64-26.75c-17.67-17.83-26.5-39.25-26.5-64.25l-.5-193c0-25 9-46.41 27-64.25 18-17.83 39.33-26.75 64-26.75s46 9 64 27 27 39.34 27 64v68.5h-23v-17c.33-5 .5-10.08.5-15.25s-.17-10.25-.5-15.25c-.67-22.33-5.09-42.75-13.25-61.25q-12.255-27.75-54.75-27.75c-18.67 0-34.67 6.67-48 20s-20 29.34-20 48v193c0 19 6.66 35.17 20 48.5 13.33 13.34 29.33 20 48 20 27.66 0 46.08-9.5 55.25-28.5 9.16-19 13.41-39.83 12.75-62.5h-90.5v-22.5h113.5v45c0 25-8.92 46.42-26.75 64.25m89.25 26.75c-12.34 0-23-4.41-32-13.25q-13.5-13.245-13.5-32.25V163.7h23v329.5c0 6.34 2.16 11.67 6.5 16 4.33 4.34 9.66 6.5 16 6.5h114v23zm287.99-1v-114h-136.5v114h-22.5v-284c0-25.33 8.83-46.83 26.5-64.5s39-26.5 64-26.5 46 9 64 27 27 39.34 27 64v284zm0-284c0-18.66-6.75-34.75-20.25-48.25s-29.59-20.25-48.25-20.25-34.25 6.75-47.75 20.25-20.25 29.59-20.25 48.25v147.5h136.5zm242.51 285v-352q-31.5-.99-55.5 16.5c-16 11.67-24 28.84-24 51.5v170.5h-22.5V254.7c0-23-8.09-40.16-24.25-51.5-16.17-11.33-34.59-16.83-55.25-16.5v352h-22.5V164.2c25 0 46.5 1.92 64.5 5.75 18 3.84 34.16 17.42 48.5 40.75 13-23 29.33-36.5 49-40.5 19.66-4 41.16-6.16 64.5-6.5v375z" class="cls-1"/><path id="Ebene_2" d="m869.88 66.73-16.13-6.12-14.77 10.26 1.51-17.74-13.53-10.6 17.07-4.85 6.41-16.81 9.04 14.74 17.48.22-11.47 13.95zm51.95 21.38L905.7 82l-14.77 10.25 1.51-17.73-13.52-10.61 17.06-4.84 6.41-16.82L911.43 57l17.49.21-11.48 13.96zm38.56 42.73-16.14-6.11-14.77 10.25 1.51-17.73-13.52-10.61 17.06-4.84 6.42-16.82 9.04 14.75 17.48.21-11.48 13.96zm-148.52-53.5-16.17-6.19-14.74 10.21 1.44-17.75-13.58-10.66 17.05-4.79 6.35-16.8 9.1 14.79 17.5.29-11.42 13.92zm-66.51 91.62-16.13-6.11-14.77 10.25 1.51-17.73-13.52-10.61 17.06-4.84 6.42-16.82 9.03 14.75 17.49.21-11.48 13.96zm20.2-57.28-16.13-6.11-14.77 10.25 1.51-17.73-13.52-10.61 17.06-4.84 6.42-16.82 9.03 14.75 17.49.21-11.48 13.96zm206.27 76.42-16.13-6.12-14.77 10.26 1.51-17.74-13.52-10.6 17.06-4.85 6.41-16.81 9.04 14.74 17.49.22-11.48 13.95zm-26.29 57.3-16.14-6.12-14.77 10.26 1.51-17.74-13.52-10.61 17.07-4.84 6.41-16.81 9.04 14.74 17.48.21-11.48 13.96zm-50.41 32.4L879 271.68l-14.77 10.26 1.5-17.74-13.52-10.61 17.07-4.84 6.41-16.81 9.04 14.74 17.48.21-11.48 13.96z" class="cls-1"/></svg>