<?xml version="1.0" encoding="UTF-8"?><svg xmlns="http://www.w3.org/2000/svg" viewBox="0 0 1000 580"><defs><style>.cls-1{stroke-width:0px;}</style></defs><g id="Ebene_1"><path class="cls-1" d="m198.21,511.95c-17.84,17.84-39.25,26.75-64.25,26.75s-46.34-8.91-64-26.75c-17.67-17.83-26.5-39.25-26.5-64.25l-.5-193c0-25,9-46.41,27-64.25,18-17.83,39.33-26.75,64-26.75s46,9,64,27,27,39.34,27,64v68.5h-23v-17c.33-5,.5-10.08.5-15.25s-.17-10.25-.5-15.25c-.67-22.33-5.09-42.75-13.25-61.25-8.17-18.5-26.42-27.75-54.75-27.75-18.67,0-34.67,6.67-48,20s-20,29.34-20,48v193c0,19,6.66,35.17,20,48.5,13.33,13.34,29.33,20,48,20,27.66,0,46.08-9.5,55.25-28.5,9.16-19,13.41-39.83,12.75-62.5h-90.5v-22.5h113.5v45c0,25-8.92,46.42-26.75,64.25Z"/><path class="cls-1" d="m287.46,538.7c-12.34,0-23-4.41-32-13.25-9-8.83-13.5-19.58-13.5-32.25V163.7h23v329.5c0,6.34,2.16,11.67,6.5,16,4.33,4.34,9.66,6.5,16,6.5h114v23h-114Z"/><path class="cls-1" d="m575.45,537.7v-114h-136.5v114h-22.5V253.7c0-25.33,8.83-46.83,26.5-64.5s39-26.5,64-26.5,46,9,64,27,27,39.34,27,64v284h-22.5Zm0-284c0-18.66-6.75-34.75-20.25-48.25s-29.59-20.25-48.25-20.25-34.25,6.75-47.75,20.25-20.25,29.59-20.25,48.25v147.5h136.5v-147.5Z"/><path class="cls-1" d="m817.96,538.7V186.7c-21-.66-39.5,4.84-55.5,16.5-16,11.67-24,28.84-24,51.5v170.5h-22.5v-170.5c0-23-8.09-40.16-24.25-51.5-16.17-11.33-34.59-16.83-55.25-16.5v352h-22.5V164.2c25,0,46.5,1.92,64.5,5.75,18,3.84,34.16,17.42,48.5,40.75,13-23,29.33-36.5,49-40.5,19.66-4,41.16-6.16,64.5-6.5v375h-22.5Z"/></g><g id="Ebene_2"><polygon class="cls-1" points="869.88 66.73 853.75 60.61 838.98 70.87 840.49 53.13 826.96 42.53 844.03 37.68 850.44 20.87 859.48 35.61 876.96 35.83 865.49 49.78 869.88 66.73"/><polygon class="cls-1" points="921.83 88.11 905.7 82 890.93 92.25 892.44 74.52 878.92 63.91 895.98 59.07 902.39 42.25 911.43 57 928.92 57.21 917.44 71.17 921.83 88.11"/><polygon class="cls-1" points="960.39 130.84 944.25 124.73 929.48 134.98 930.99 117.25 917.47 106.64 934.53 101.8 940.95 84.98 949.99 99.73 967.47 99.94 955.99 113.9 960.39 130.84"/><polygon class="cls-1" points="811.87 77.34 795.7 71.15 780.96 81.36 782.4 63.61 768.82 52.95 785.87 48.16 792.22 31.36 801.32 46.15 818.82 46.44 807.4 60.36 811.87 77.34"/><polygon class="cls-1" points="745.36 168.96 729.23 162.85 714.46 173.1 715.97 155.37 702.45 144.76 719.51 139.92 725.93 123.1 734.96 137.85 752.45 138.06 740.97 152.02 745.36 168.96"/><polygon class="cls-1" points="765.56 111.68 749.43 105.57 734.66 115.82 736.17 98.09 722.65 87.48 739.71 82.64 746.13 65.82 755.16 80.57 772.65 80.78 761.17 94.74 765.56 111.68"/><polygon class="cls-1" points="971.83 188.1 955.7 181.98 940.93 192.24 942.44 174.5 928.92 163.9 945.98 159.05 952.39 142.24 961.43 156.98 978.92 157.2 967.44 171.15 971.83 188.1"/><polygon class="cls-1" points="945.54 245.4 929.4 239.28 914.63 249.54 916.14 231.8 902.62 221.19 919.69 216.35 926.1 199.54 935.14 214.28 952.62 214.49 941.14 228.45 945.54 245.4"/><polygon class="cls-1" points="895.13 277.8 879 271.68 864.23 281.94 865.73 264.2 852.21 253.59 869.28 248.75 875.69 231.94 884.73 246.68 902.21 246.89 890.73 260.85 895.13 277.8"/></g></svg>