<?xml version="1.0" encoding="UTF-8"?><svg xmlns="http://www.w3.org/2000/svg" viewBox="0 0 944.96 617.83"><defs><style>.cls-1{font-family:BeautySchoolDropout, BeautySchoolDropout;font-size:500px;}.cls-2{stroke-width:0px;}.cls-3{letter-spacing:-.01em;}</style></defs><g id="Ebene_1"><text class="cls-1" transform="translate(0 517.83)"><tspan x="0" y="0">GL</tspan><tspan class="cls-3" x="374.99" y="0">A</tspan><tspan x="568.5" y="0">M</tspan></text></g><g id="Ebene_2"><polygon class="cls-2" points="835.92 45.86 819.79 39.74 805.02 50 806.52 32.26 793 21.66 810.07 16.81 816.48 0 825.52 14.74 843 14.96 831.52 28.91 835.92 45.86"/><polygon class="cls-2" points="887.87 67.24 871.74 61.13 856.97 71.38 858.48 53.65 844.96 43.04 862.02 38.2 868.43 21.38 877.47 36.13 894.96 36.34 883.48 50.3 887.87 67.24"/><polygon class="cls-2" points="926.42 109.98 910.29 103.86 895.52 114.12 897.03 96.38 883.51 85.77 900.57 80.93 906.99 64.12 916.02 78.86 933.51 79.07 922.03 93.03 926.42 109.98"/><polygon class="cls-2" points="777.9 56.47 761.74 50.28 747 60.49 748.43 42.75 734.86 32.08 751.91 27.29 758.26 10.49 767.36 25.28 784.86 25.57 773.43 39.49 777.9 56.47"/><polygon class="cls-2" points="711.4 148.1 695.27 141.98 680.5 152.24 682.01 134.5 668.49 123.89 685.55 119.05 691.97 102.24 701 116.98 718.49 117.19 707.01 131.15 711.4 148.1"/><polygon class="cls-2" points="731.6 90.82 715.47 84.7 700.7 94.96 702.21 77.22 688.69 66.61 705.75 61.77 712.17 44.96 721.2 59.7 738.69 59.91 727.21 73.87 731.6 90.82"/><polygon class="cls-2" points="937.87 167.23 921.74 161.11 906.97 171.37 908.48 153.63 894.96 143.03 912.02 138.18 918.43 121.37 927.47 136.11 944.96 136.33 933.48 150.29 937.87 167.23"/><polygon class="cls-2" points="911.58 224.53 895.44 218.41 880.67 228.67 882.18 210.93 868.66 200.33 885.72 195.48 892.14 178.67 901.18 193.41 918.66 193.63 907.18 207.58 911.58 224.53"/><polygon class="cls-2" points="861.17 256.93 845.03 250.81 830.27 261.07 831.77 243.33 818.25 232.72 835.32 227.88 841.73 211.07 850.77 225.81 868.25 226.03 856.77 239.98 861.17 256.93"/></g></svg>